<?xml version="1.0" standalone="no"?>
<!DOCTYPE svg PUBLIC "-//W3C//DTD SVG 20010904//EN"
 "http://www.w3.org/TR/2001/REC-SVG-20010904/DTD/svg10.dtd">
<svg version="1.0" xmlns="http://www.w3.org/2000/svg"
 width="192.000000pt" height="192.000000pt" viewBox="0 0 192.000000 192.000000"
 preserveAspectRatio="xMidYMid meet">

<g transform="translate(0.000000,192.000000) scale(0.100000,-0.100000)"
fill="#000000" stroke="none">
<path d="M324 1901 c-148 -42 -270 -167 -308 -316 -24 -88 -24 -1162 0 -1250
39 -151 161 -275 312 -317 61 -16 113 -18 632 -18 615 0 629 1 732 57 95 52
184 168 212 278 24 88 24 1162 0 1250 -28 110 -117 226 -212 278 -103 56 -116
57 -737 56 -513 0 -576 -2 -631 -18z m875 -257 c184 -61 313 -199 375 -400 6
-18 0 -22 -49 -33 -30 -7 -57 -13 -61 -14 -3 -1 -14 21 -23 49 -70 196 -235
303 -468 304 -161 0 -278 -44 -363 -136 -28 -31 -59 -73 -69 -93 -104 -203
-95 -574 18 -750 89 -138 220 -201 419 -201 147 0 249 37 334 122 55 55 78
109 78 187 0 76 -25 137 -73 177 l-31 26 -22 -70 c-38 -125 -113 -200 -222
-223 -155 -32 -301 41 -338 168 -55 189 111 328 373 310 l81 -6 -15 44 c-22
66 -92 115 -166 115 -43 0 -110 -25 -138 -51 l-30 -28 -49 32 c-28 18 -50 35
-50 39 0 17 105 98 147 112 59 20 176 21 235 0 96 -32 172 -132 185 -242 6
-51 7 -53 73 -97 120 -80 164 -161 164 -300 0 -122 -25 -184 -110 -274 -103
-110 -214 -157 -389 -168 -331 -19 -569 152 -645 467 -39 162 -37 362 6 526
57 221 225 384 439 429 111 23 279 14 384 -21z"/>
<path d="M905 925 c-54 -19 -85 -57 -85 -103 0 -50 21 -77 75 -98 57 -21 142
-14 184 15 34 24 66 88 76 147 6 40 5 41 -26 48 -55 11 -182 6 -224 -9z"/>
</g>
</svg>
